<svg width="60" height="60" viewBox="0 0 60 60" fill="none" xmlns="http://www.w3.org/2000/svg">
<path d="M58 30C58 45.464 45.464 58 30 58C14.536 58 2 45.464 2 30C2 14.536 14.536 2 30 2C45.464 2 58 14.536 58 30Z" fill="#2196F3" stroke="#42A5F5" stroke-width="4"/>
<mask id="mask0_1_705" style="mask-type:luminance" maskUnits="userSpaceOnUse" x="0" y="0" width="60" height="60">
<path fill-rule="evenodd" clip-rule="evenodd" d="M30 60C46.5685 60 60 46.5685 60 30C60 13.4315 46.5685 0 30 0C13.4315 0 0 13.4315 0 30C0 46.5685 13.4315 60 30 60Z" fill="white"/>
</mask>
<g mask="url(#mask0_1_705)">
<path d="M2.71398 22.875H56.536" stroke="#42A5F5" stroke-width="4" stroke-linecap="square"/>
<path d="M2.71398 38.625H56.536" stroke="#42A5F5" stroke-width="4" stroke-linecap="square"/>
<path d="M29.25 4.5C29.25 4.5 19.2878 16.0775 19.5035 30.75C19.7191 45.4225 29.25 55.5 29.25 55.5" stroke="#42A5F5" stroke-width="4" stroke-linecap="round" stroke-linejoin="round"/>
<path d="M30 4.5C30 4.5 39.9622 16.0775 39.7465 30.75C39.5309 45.4225 30 55.5 30 55.5" stroke="#42A5F5" stroke-width="4" stroke-linecap="round" stroke-linejoin="round"/>
</g>
<path fill-rule="evenodd" clip-rule="evenodd" d="M40.1946 19.0278C40.3946 18.9123 40.6151 18.8406 40.8456 18.8261C41.8621 18.7621 44.798 18.678 45.4347 19.7809C46.0715 20.8838 44.5298 23.3837 43.966 24.2314C43.8383 24.4235 43.666 24.5784 43.4662 24.6938L37.3904 28.2016L38.2343 45.302C38.2461 45.5414 38.125 45.7679 37.9193 45.8911L36.67 46.6393C36.5055 46.7379 36.3057 46.7586 36.1244 46.696L35.1776 46.369C35.019 46.3143 34.8877 46.2002 34.8114 46.0508L28.3534 33.4192L21.9843 37.0964L21.2974 41.7678C21.2498 42.0912 20.9693 42.3288 20.6426 42.3226L20.1446 42.3132C19.8927 42.3084 19.6663 42.1583 19.5638 41.9282L17.7741 37.9122C16.5439 37.9515 15.3891 37.8306 15.0792 37.294C14.7697 36.7579 15.2429 35.7021 15.893 34.6611L13.3295 31.1301C13.1815 30.9263 13.1648 30.6552 13.2866 30.4347L13.5274 29.9987C13.6854 29.7126 14.0314 29.5886 14.3352 29.709L18.6974 31.4392L25.0779 27.7555L17.4192 15.9267C17.328 15.7858 17.2948 15.6152 17.3267 15.4504L17.517 14.4669C17.5534 14.2786 17.6712 14.116 17.8389 14.0228L19.1115 13.315C19.321 13.1984 19.5777 13.2068 19.7791 13.3368L34.0768 22.5599L40.1946 19.0278Z" fill="white"/>
<mask id="mask1_1_705" style="mask-type:luminance" maskUnits="userSpaceOnUse" x="13" y="13" width="33" height="34">
<path fill-rule="evenodd" clip-rule="evenodd" d="M40.1946 19.0278C40.3946 18.9123 40.6151 18.8406 40.8456 18.8261C41.8621 18.7621 44.798 18.678 45.4347 19.7809C46.0715 20.8838 44.5298 23.3837 43.966 24.2314C43.8383 24.4235 43.666 24.5784 43.4662 24.6938L37.3904 28.2016L38.2343 45.302C38.2461 45.5414 38.125 45.7679 37.9193 45.8911L36.67 46.6393C36.5055 46.7379 36.3057 46.7586 36.1244 46.696L35.1776 46.369C35.019 46.3143 34.8877 46.2002 34.8114 46.0508L28.3534 33.4192L21.9843 37.0964L21.2974 41.7678C21.2498 42.0912 20.9693 42.3288 20.6426 42.3226L20.1446 42.3132C19.8927 42.3084 19.6663 42.1583 19.5638 41.9282L17.7741 37.9122C16.5439 37.9515 15.3891 37.8306 15.0792 37.294C14.7697 36.7579 15.2429 35.7021 15.893 34.6611L13.3295 31.1301C13.1815 30.9263 13.1648 30.6552 13.2866 30.4347L13.5274 29.9987C13.6854 29.7126 14.0314 29.5886 14.3352 29.709L18.6974 31.4392L25.0779 27.7555L17.4192 15.9267C17.328 15.7858 17.2948 15.6152 17.3267 15.4504L17.517 14.4669C17.5534 14.2786 17.6712 14.116 17.8389 14.0228L19.1115 13.315C19.321 13.1984 19.5777 13.2068 19.7791 13.3368L34.0768 22.5599L40.1946 19.0278Z" fill="white"/>
</mask>
<g mask="url(#mask1_1_705)">
<rect x="34.536" y="20.7839" width="1.30853" height="12.4084" transform="rotate(60 34.536 20.7839)" fill="#EBECF2"/>
<path fill-rule="evenodd" clip-rule="evenodd" d="M37.9193 45.8911C38.125 45.7679 38.246 45.5415 38.2342 45.302L37.3628 27.6426L28.1264 32.9752L34.8113 46.0508C34.8877 46.2002 35.0189 46.3143 35.1775 46.369L36.1244 46.696C36.3057 46.7587 36.5054 46.7379 36.67 46.6393L37.9193 45.8911Z" fill="#DEE1E3"/>
<path opacity="0.4" fill-rule="evenodd" clip-rule="evenodd" d="M17.8366 37.8013L17.7476 37.8527L19.5638 41.9282C19.6664 42.1584 19.8928 42.3084 20.1447 42.3132L20.6426 42.3226C20.9694 42.3288 21.2498 42.0912 21.2974 41.7678L22.023 36.8334L21.56 37.1007C21.4167 37.1834 21.2626 37.2452 21.1011 37.2813C20.551 37.4041 19.1548 37.6951 17.8366 37.8013Z" fill="#DEE1E3"/>
<path fill-rule="evenodd" clip-rule="evenodd" d="M28.2482 33.2134L37.3776 27.9426L37.4768 29.9539L29.9559 36.5538L28.2482 33.2134Z" fill="#C5C6CC"/>
<path fill-rule="evenodd" clip-rule="evenodd" d="M46.4823 22.9524L16.6913 40.1523C16.6913 40.1523 15.8123 38.5636 15.0793 37.2939C15.0704 37.2786 15.062 37.263 15.0541 37.2473C16.4056 37.345 19.1269 37.2351 21.7661 35.7114L42.3906 23.8038C44.6822 22.4807 45.2435 20.7674 45.5526 20.0309C46.0312 21.316 46.4823 22.9524 46.4823 22.9524Z" fill="#DEE1E3"/>
</g>
</svg>
